<svg width="16" height="18" viewBox="0 0 16 18" fill="none" xmlns="http://www.w3.org/2000/svg">
<mask id="path-1-inside-1_996_4862" fill="white">
<path d="M11.1998 15.209C11.1998 16.7516 9.76514 17.9993 7.9998 17.9993C6.23447 17.9993 4.7998 16.7516 4.7998 15.209"/>
</mask>
<path d="M11.1998 15.209C11.1998 16.7516 9.76514 17.9993 7.9998 17.9993C6.23447 17.9993 4.7998 16.7516 4.7998 15.209" fill="#5A90FF"/>
<path d="M9.19981 15.209C9.19981 15.3312 9.14781 15.5006 8.94797 15.6747C8.74392 15.8525 8.41443 15.9993 7.9998 15.9993V19.9993C10.602 19.9993 13.1998 18.106 13.1998 15.209H9.19981ZM7.9998 15.9993C7.58518 15.9993 7.25569 15.8525 7.05164 15.6747C6.8518 15.5006 6.7998 15.3312 6.7998 15.209H2.7998C2.7998 18.106 5.39758 19.9993 7.9998 19.9993V15.9993Z" fill="#5A90FF" mask="url(#path-1-inside-1_996_4862)"/>
<path d="M13.0606 6.07848V12.0331C13.0606 12.3769 13.1968 12.7067 13.4393 12.9503L13.5933 13.1049H2.40669L2.56066 12.9503C2.80322 12.7067 2.93939 12.3769 2.93939 12.0331V6.07848C2.93939 3.27284 5.20963 1 8 1C10.7909 1 13.0606 3.26856 13.0606 6.07848Z" fill="#5A90FF" stroke="#5A90FF" stroke-width="2"/>
</svg>
