<svg width="25" height="43" viewBox="0 0 25 43" fill="none" xmlns="http://www.w3.org/2000/svg">
<path d="M5.4545 42.4906H1.9308C0.86886 42.4906 0 41.6314 0 40.5695V2.21411C0 1.16183 0.86886 0.292969 1.9308 0.292969H5.4545C6.51644 0.292969 7.3853 1.15217 7.3853 2.21411V40.5695C7.3853 41.6217 6.51644 42.4906 5.4545 42.4906Z" fill="#5A90FF"/>
<path d="M22.8317 42.4906H19.308C18.2461 42.4906 17.3772 41.6314 17.3772 40.5695V2.21411C17.3772 1.16183 18.2461 0.292969 19.308 0.292969H22.8317C23.8936 0.292969 24.7625 1.15217 24.7625 2.21411V40.5695C24.7625 41.6217 23.8936 42.4906 22.8317 42.4906Z" fill="#5A90FF"/>
</svg>
