<svg width="154" height="125" viewBox="0 0 154 125" fill="none" xmlns="http://www.w3.org/2000/svg">
<path d="M13.19 103.454C9.13 103.436 6.64 106.388 6.64 111.499C6.64 116.611 9.19 119.545 13.15 119.545C15.56 119.545 17.37 118.537 18.23 116.782C18.62 115.981 19.49 115.45 20.46 115.459H22.16C23.89 115.477 25.04 117.07 24.37 118.501C22.73 122.029 18.88 124.981 13.03 124.981C5.56 124.981 0 120.121 0 111.49C0 102.86 5.68 98 13.03 98C18.54 98 22.85 100.475 24.54 104.921C25.08 106.343 23.93 107.819 22.26 107.819H20.55C19.54 107.819 18.65 107.243 18.29 106.388C17.5 104.534 15.69 103.418 13.19 103.436V103.454Z" fill="#5A90FF"/>
<path d="M41.7602 124.989C34.3302 124.989 28.6602 120.111 28.6602 111.498C28.6602 102.886 34.3402 98.0078 41.7602 98.0078C49.1802 98.0078 54.8802 102.832 54.8602 111.498C54.8802 120.147 49.1502 124.989 41.7602 124.989ZM41.7602 119.553C45.8002 119.553 48.2502 116.727 48.2402 111.507C48.2602 106.287 45.8002 103.444 41.7602 103.462C37.7402 103.444 35.2802 106.287 35.2802 111.507C35.2802 116.727 37.7402 119.553 41.7602 119.553Z" fill="#5A90FF"/>
<path d="M65.0997 98.377C66.0997 98.377 66.9897 98.9259 67.3497 99.7629L73.8797 114.909H74.1797L80.7097 99.7629C81.0697 98.9259 81.9597 98.377 82.9597 98.377H86.9297C88.2597 98.377 89.3397 99.3489 89.3397 100.546V122.451C89.3397 123.648 88.2597 124.62 86.9297 124.62H85.4297C84.0997 124.62 83.0197 123.648 83.0197 122.451V108.304H82.7897L76.6697 123.063C76.3197 123.909 75.4197 124.476 74.4097 124.476H73.6497C72.6397 124.476 71.7397 123.909 71.3897 123.063L65.2697 108.241H65.0397V122.46C65.0397 123.657 63.9597 124.629 62.6297 124.629H61.1297C59.7997 124.629 58.7197 123.657 58.7197 122.46V100.555C58.7197 99.3579 59.7997 98.386 61.1297 98.386H65.0997V98.377Z" fill="#5A90FF"/>
<path d="M99.9103 98.377C100.91 98.377 101.8 98.9259 102.16 99.7629L108.69 114.909H108.99L115.52 99.7629C115.88 98.9259 116.77 98.377 117.77 98.377H121.74C123.07 98.377 124.15 99.3489 124.15 100.546V122.451C124.15 123.648 123.07 124.62 121.74 124.62H120.24C118.91 124.62 117.83 123.648 117.83 122.451V108.304H117.6L111.48 123.063C111.13 123.909 110.23 124.476 109.22 124.476H108.46C107.45 124.476 106.55 123.909 106.2 123.063L100.08 108.241H99.8503V122.46C99.8503 123.657 98.7703 124.629 97.4403 124.629H95.9403C94.6103 124.629 93.5303 123.657 93.5303 122.46V100.555C93.5303 99.3579 94.6103 98.386 95.9403 98.386H99.9103V98.377Z" fill="#5A90FF"/>
<path d="M128.07 121.795L135.89 99.8897C136.21 98.9897 137.14 98.3867 138.19 98.3867H143.28C144.33 98.3867 145.26 98.9987 145.58 99.8987L153.37 121.804C153.87 123.208 152.71 124.639 151.07 124.639H149.2C148.13 124.639 147.19 124.009 146.89 123.091L145.54 119.023H135.94L134.59 123.091C134.28 124.009 133.34 124.639 132.28 124.639H130.38C128.74 124.639 127.58 123.208 128.08 121.804L128.07 121.795ZM143.97 114.298L140.85 104.875H140.62L137.5 114.298H143.98H143.97Z" fill="#5A90FF"/>
<mask id="mask0_996_7181" style="mask-type:luminance" maskUnits="userSpaceOnUse" x="47" y="0" width="60" height="83">
<mask id="mask1_996_7181" style="mask-type:luminance" maskUnits="userSpaceOnUse" x="47" y="0" width="60" height="83">
<path d="M47 82.9692H107V0H47V82.9692Z" fill="white"/>
</mask>
<g mask="url(#mask1_996_7181)">
<path d="M47 0H107V82.9692H47V0Z" fill="white"/>
</g>
</mask>
<g mask="url(#mask0_996_7181)">
<mask id="mask2_996_7181" style="mask-type:luminance" maskUnits="userSpaceOnUse" x="47" y="0" width="60" height="83">
<path d="M47 82.9692H107V0H47V82.9692Z" fill="white"/>
</mask>
<g mask="url(#mask2_996_7181)">
<path d="M66.7478 51.4476C56.0037 51.4476 47.2588 42.5924 47.2588 31.7118V15.8005C47.2588 7.23356 54.143 0.259766 62.6062 0.259766H106.719V51.4435H66.7478V51.4476Z" fill="#5A90FF"/>
</g>
<mask id="mask3_996_7181" style="mask-type:luminance" maskUnits="userSpaceOnUse" x="47" y="0" width="60" height="83">
<path d="M47 82.9692H107V0H47V82.9692Z" fill="white"/>
</mask>
<g mask="url(#mask3_996_7181)">
<path d="M106.626 0.344779V51.3556H66.7477C61.5626 51.3556 56.6915 49.3137 53.0255 45.6004C49.3594 41.887 47.3417 36.9552 47.3417 31.7063V15.7991C47.3417 7.27741 54.189 0.344779 62.6014 0.344779H106.626ZM106.802 0.171875H62.6014C54.0782 0.171875 47.1709 7.16626 47.1709 15.7991V31.7104C47.1709 42.6569 55.9343 51.5326 66.743 51.5326H106.797V0.171875H106.802Z" fill="#5A90FF"/>
</g>
<mask id="mask4_996_7181" style="mask-type:luminance" maskUnits="userSpaceOnUse" x="47" y="0" width="60" height="83">
<path d="M47 82.9692H107V0H47V82.9692Z" fill="white"/>
</mask>
<g mask="url(#mask4_996_7181)">
<path d="M47.4297 82.8496C47.4759 67.1524 60.1038 54.3945 75.6175 54.3945H106.889C106.843 70.0917 94.2154 82.8496 78.7017 82.8496H47.4297Z" fill="#5A90FF"/>
</g>
<mask id="mask5_996_7181" style="mask-type:luminance" maskUnits="userSpaceOnUse" x="47" y="0" width="60" height="83">
<path d="M47 82.9692H107V0H47V82.9692Z" fill="white"/>
</mask>
<g mask="url(#mask5_996_7181)">
<path d="M106.802 54.4815C106.755 62.0152 103.837 69.096 98.5738 74.4313C93.2641 79.8037 86.2091 82.7637 78.7016 82.7637H47.5126C47.5588 75.23 50.4768 68.1492 55.7404 62.8138C61.0501 57.4415 68.1052 54.4815 75.6127 54.4815H106.802ZM106.972 54.3086H75.6127C59.9974 54.3086 47.3418 67.1241 47.3418 82.9366H78.6969C94.3122 82.9366 106.972 70.1211 106.972 54.3086Z" fill="#5A90FF"/>
</g>
</g>
</svg>
