<svg width="24" height="24" viewBox="0 0 24 24" fill="none" xmlns="http://www.w3.org/2000/svg">
<path d="M14.2558 8.86899C14.2558 10.0074 13.2798 10.988 12.0029 10.988C10.7261 10.988 9.75 10.0074 9.75 8.86899C9.75 7.73059 10.7261 6.75 12.0029 6.75C13.2798 6.75 14.2558 7.73058 14.2558 8.86899Z" stroke="white" stroke-width="1.5"/>
<mask id="path-2-inside-1_996_521" fill="white">
<path d="M12 12.7305H12.9064C15.7198 12.7305 17.9999 14.6333 17.9999 16.9802V17.999H12"/>
</mask>
<path d="M17.9999 17.999V19.499H19.4999V17.999H17.9999ZM12 14.2305H12.9064V11.2305H12V14.2305ZM12.9064 14.2305C15.1572 14.2305 16.4999 15.7046 16.4999 16.9802H19.4999C19.4999 13.5621 16.2825 11.2305 12.9064 11.2305V14.2305ZM16.4999 16.9802V17.999H19.4999V16.9802H16.4999ZM17.9999 16.499H12V19.499H17.9999V16.499Z" fill="white" mask="url(#path-2-inside-1_996_521)"/>
<mask id="path-4-inside-2_996_521" fill="white">
<path d="M11.9999 12.7305H11.0935C8.28006 12.7305 6 14.6333 6 16.9802V17.999H11.9999"/>
</mask>
<path d="M6 17.999H4.5V19.499H6V17.999ZM11.9999 11.2305H11.0935V14.2305H11.9999V11.2305ZM11.0935 11.2305C7.71738 11.2305 4.5 13.5621 4.5 16.9802H7.5C7.5 15.7046 8.84274 14.2305 11.0935 14.2305V11.2305ZM4.5 16.9802V17.999H7.5V16.9802H4.5ZM6 19.499H11.9999V16.499H6V19.499Z" fill="white" mask="url(#path-4-inside-2_996_521)"/>
<circle cx="12" cy="12" r="11.25" stroke="white" stroke-width="1.5" stroke-linecap="round"/>
</svg>
