<svg width="17" height="29" viewBox="0 0 17 29" fill="none" xmlns="http://www.w3.org/2000/svg">
<path d="M3.73017 28.8577H1.32042C0.594187 28.8577 0 28.2701 0 27.5439V1.31381C0 0.594186 0.594187 0 1.32042 0H3.73017C4.4564 0 5.05059 0.587584 5.05059 1.31381V27.5439C5.05059 28.2635 4.4564 28.8577 3.73017 28.8577Z" fill="white"/>
<path d="M15.614 28.8577H13.2042C12.478 28.8577 11.8838 28.2701 11.8838 27.5439V1.31381C11.8838 0.594186 12.478 0 13.2042 0H15.614C16.3402 0 16.9344 0.587584 16.9344 1.31381V27.5439C16.9344 28.2635 16.3402 28.8577 15.614 28.8577Z" fill="white"/>
</svg>
