<svg xmlns="http://www.w3.org/2000/svg" width="17" height="29" viewBox="0 0 17 29" fill="none">
<path d="M3.73017 28.8577H1.32042C0.594187 28.8577 0 28.2701 0 27.5439V1.31381C0 0.594186 0.594187 0 1.32042 0H3.73017C4.4564 0 5.05059 0.587584 5.05059 1.31381V27.5439C5.05059 28.2635 4.4564 28.8577 3.73017 28.8577Z" fill="white"/>
<path d="M15.6139 28.8577H13.2041C12.4779 28.8577 11.8837 28.2701 11.8837 27.5439V1.31381C11.8837 0.594186 12.4779 0 13.2041 0H15.6139C16.3401 0 16.9343 0.587584 16.9343 1.31381V27.5439C16.9343 28.2635 16.3401 28.8577 15.6139 28.8577Z" fill="white"/>
</svg>