<svg width="26" height="26" viewBox="0 0 26 26" fill="none" xmlns="http://www.w3.org/2000/svg">
<path d="M24.1006 14.7016C24.6113 14.6499 25 14.22 25 13.7066V12.2934C25 11.78 24.6113 11.3501 24.1006 11.2984L22.6827 11.1551C22.2511 11.1115 21.9022 10.7929 21.7779 10.3774C21.5976 9.77466 21.3576 9.19819 21.0635 8.65555C20.8558 8.27218 20.8762 7.79724 21.1523 7.4597L22.0511 6.36074C22.3765 5.9629 22.3474 5.38318 21.9837 5.02001L20.98 4.01776C20.6168 3.65508 20.038 3.62626 19.6406 3.95106L18.5351 4.85457C18.1989 5.12932 17.7263 5.15083 17.3446 4.944C16.7999 4.64887 16.2239 4.40706 15.6211 4.22516C15.2062 4.09995 14.8882 3.75097 14.845 3.3197L14.7025 1.90016C14.6512 1.3891 14.2211 1 13.7075 1H12.2924C11.7788 1 11.3487 1.3891 11.2974 1.90016L11.155 3.3197C11.1117 3.75097 10.7938 4.1 10.3786 4.22436C9.77682 4.4046 9.20105 4.64367 8.65886 4.9383C8.27486 5.14696 7.79869 5.12737 7.4603 4.85081L6.35936 3.95106C5.96193 3.62626 5.38314 3.65508 5.01994 4.01776L4.01628 5.02C3.6526 5.38318 3.62343 5.9629 3.94884 6.36074L4.84922 7.46152C5.12458 7.79818 5.14576 8.27169 4.93858 8.65411C4.6436 9.19861 4.40301 9.7745 4.22227 10.3774C4.09772 10.7929 3.74882 11.1115 3.31726 11.1551L1.89944 11.2984C1.3887 11.3501 1 11.78 1 12.2934V13.7066C1 14.22 1.3887 14.6499 1.89944 14.7016L3.31726 14.8449C3.74882 14.8885 4.09775 15.2071 4.22209 15.6227C4.40241 16.2253 4.64234 16.8018 4.93646 17.3445C5.14425 17.7278 5.12381 18.2028 4.84773 18.5403L3.94884 19.6393C3.62344 20.0371 3.6526 20.6168 4.01628 20.98L5.01994 21.9822C5.38314 22.3449 5.96193 22.3737 6.35936 22.0489L7.46489 21.1454C7.80107 20.8707 8.27365 20.8492 8.65539 21.056C9.20008 21.3511 9.77601 21.5929 10.3788 21.7748C10.7938 21.9001 11.1117 22.249 11.155 22.6803L11.2974 24.0998C11.3487 24.6109 11.7788 25 12.2924 25H13.7075C14.2211 25 14.6512 24.6109 14.7025 24.0998L14.845 22.6803C14.8882 22.249 15.2062 21.9 15.6214 21.7756C16.2231 21.5954 16.7989 21.3563 17.3411 21.0617C17.7251 20.853 18.2013 20.8726 18.5397 21.1492L19.6406 22.0489C20.038 22.3737 20.6168 22.3449 20.98 21.9822L21.9837 20.98C22.3474 20.6168 22.3765 20.0371 22.0511 19.6393L21.1508 18.5385C20.8754 18.2018 20.8542 17.7283 21.0614 17.3459C21.3564 16.8014 21.597 16.2255 21.7777 15.6226C21.9022 15.2071 22.2511 14.8885 22.6827 14.8449L24.1006 14.7016Z" stroke="#666666" stroke-width="2" stroke-miterlimit="10"/>
<path d="M13.0063 17.2697C15.3672 17.2697 17.2811 15.3568 17.2811 12.9972C17.2811 10.6375 15.3672 8.72461 13.0063 8.72461C10.6453 8.72461 8.73145 10.6375 8.73145 12.9972C8.73145 15.3568 10.6453 17.2697 13.0063 17.2697Z" stroke="#666666" stroke-width="2" stroke-miterlimit="10"/>
</svg>
