<svg width="50" height="50" viewBox="-12.5 -12.5 90 90" fill="none" xmlns="http://www.w3.org/2000/svg">
<circle cx="35" cy="35" r="35" fill="#D9D9D9"/>
<path d="M40.5138 27.6944C40.5138 30.4994 38.1135 32.8888 35.0069 32.8888C31.9003 32.8888 29.5 30.4994 29.5 27.6944C29.5 24.8894 31.9003 22.5 35.0069 22.5C38.1135 22.5 40.5138 24.8894 40.5138 27.6944Z" fill="#D9D9D9" stroke="white" stroke-width="3"/>
<mask id="path-3-inside-1_996_119" fill="white">
<path d="M35 36.707H37.1149C43.6798 36.707 49 41.1471 49 46.6232V49.0005H35"/>
</mask>
<path d="M35 36.707H37.1149C43.6798 36.707 49 41.1471 49 46.6232V49.0005H35" fill="#D9D9D9"/>
<path d="M49 49.0005V52.0005H52V49.0005H49ZM35 39.707H37.1149V33.707H35V39.707ZM37.1149 39.707C42.5544 39.707 46 43.2896 46 46.6232H52C52 39.0046 44.8051 33.707 37.1149 33.707V39.707ZM46 46.6232V49.0005H52V46.6232H46ZM49 46.0005H35V52.0005H49V46.0005Z" fill="white" mask="url(#path-3-inside-1_996_119)"/>
<mask id="path-5-inside-2_996_119" fill="white">
<path d="M35 36.707H32.8851C26.3202 36.707 21 41.1471 21 46.6232V49.0005H35"/>
</mask>
<path d="M35 36.707H32.8851C26.3202 36.707 21 41.1471 21 46.6232V49.0005H35" fill="#D9D9D9"/>
<path d="M21 49.0005H18V52.0005H21V49.0005ZM35 33.707H32.8851V39.707H35V33.707ZM32.8851 33.707C25.1949 33.707 18 39.0046 18 46.6232H24C24 43.2896 27.4456 39.707 32.8851 39.707V33.707ZM18 46.6232V49.0005H24V46.6232H18ZM21 52.0005H35V46.0005H21V52.0005Z" fill="white" mask="url(#path-5-inside-2_996_119)"/>
</svg>
