<svg width="24" height="24" viewBox="0 0 28 28" fill="none" xmlns="http://www.w3.org/2000/svg">
<path d="M16.5118 5.73806C16.5118 8.01493 14.5597 9.97612 12.0059 9.97612C9.45216 9.97612 7.5 8.01491 7.5 5.73806C7.5 3.46121 9.45216 1.5 12.0059 1.5C14.5597 1.5 16.5118 3.46119 16.5118 5.73806Z" fill="#5A90FF" stroke="#5A90FF" stroke-width="3"/>
<mask id="path-2-inside-1_996_7420" fill="white">
<path d="M12 13.4629H13.8127C19.4398 13.4629 24 17.2687 24 21.9624V24.0001H12"/>
</mask>
<path d="M12 13.4629H13.8127C19.4398 13.4629 24 17.2687 24 21.9624V24.0001H12" fill="#5A90FF"/>
<path d="M24 24.0001V27.0001H27V24.0001H24ZM12 16.4629H13.8127V10.4629H12V16.4629ZM13.8127 16.4629C18.3145 16.4629 21 19.4112 21 21.9624H27C27 15.1261 20.5652 10.4629 13.8127 10.4629V16.4629ZM21 21.9624V24.0001H27V21.9624H21ZM24 21.0001H12V27.0001H24V21.0001Z" fill="#5A90FF" mask="url(#path-2-inside-1_996_7420)"/>
<mask id="path-4-inside-2_996_7420" fill="white">
<path d="M12 13.4629H10.1873C4.56019 13.4629 0 17.2687 0 21.9624V24.0001H12"/>
</mask>
<path d="M12 13.4629H10.1873C4.56019 13.4629 0 17.2687 0 21.9624V24.0001H12" fill="#5A90FF"/>
<path d="M0 24.0001H-3V27.0001H0V24.0001ZM12 10.4629H10.1873V16.4629H12V10.4629ZM10.1873 10.4629C3.43483 10.4629 -3 15.1261 -3 21.9624H3C3 19.4112 5.68554 16.4629 10.1873 16.4629V10.4629ZM-3 21.9624V24.0001H3V21.9624H-3ZM0 27.0001H12V21.0001H0V27.0001Z" fill="#5A90FF" mask="url(#path-4-inside-2_996_7420)"/>
</svg>
