<svg width="24" height="24" viewBox="0 0 28 28" fill="none" xmlns="http://www.w3.org/2000/svg">
<path d="M14.564 2.38514C14.2239 2.15288 13.7761 2.15288 13.436 2.38514L2.43604 9.89734C2.1632 10.0837 2 10.3927 2 10.7231V25C2 25.5523 2.44772 26 3 26H9C9.55228 26 10 25.5523 10 25V18.9756C10 17.038 11.7933 15.4634 14 15.4634C16.2067 15.4634 18 17.038 18 18.9756V25C18 25.5523 18.4477 26 19 26H25C25.5523 26 26 25.5523 26 25V10.7231C26 10.3927 25.8368 10.0837 25.564 9.89734L14.564 2.38514Z" fill="#5A90FF" stroke="#5A90FF" stroke-width="3" stroke-miterlimit="10"/>
</svg>
